<svg viewBox="0 0 1440 1167" fill="none">                            
    <g id="dashboard-wireframe">
    <g id="Frame 1">
        <defs>
            <linearGradient id="data-flow-gradient">
                <!-- White shows, black hides-->
                <stop offset="0" stop-color="white" stop-opacity="0"/>
                <stop offset="0.8" stop-color="white" stop-opacity="1"/>
                <stop offset="0.8" stop-color="white" stop-opacity="0"/>
            </linearGradient>
        
            <mask id="data-flow-gradient-mask">
                <rect class="mask-rect" x="0" y="0" height="100%" width="100%" fill="url(#data-flow-gradient)"/>
            </mask>
        </defs>
    <g id="Rectangle 6" filter="url(#filter0_i_18_235)">
    <rect x="169" y="280" width="1253" height="727" rx="50" fill="#F5F4F6"/>
    </g>
    <g id="Assigment Placeholder">
    <path class="front-wire" d="M265 214C265 214 255 242 317 242C379 242 566 242 590 242C614 242 614 262 614 262" stroke="#754FFE" stroke-width="5" mask="url(#data-flow-gradient-mask)"/>
    <circle class="back-node" cx="613.5" cy="269.5" r="10.5" fill="#CCCCCC"/>
    <circle class="front-node" cx="613.5" cy="269.5" r="10.5" fill="#754FFE"/>
    <circle class="back-node" cx="264.5" cy="207.5" r="10.5" fill="#CCCCCC" fill-opacity="0.8"/>
    <circle class="front-node" cx="264.5" cy="207.5" r="10.5" fill="#754FFE"/>
    </g>
    <g id="Project Folder">
    <g id="FolderFill">
    <path id="Vector" d="M823.425 124.75H848.312C850.049 124.75 851.767 125.112 853.357 125.812C854.946 126.513 856.372 127.538 857.543 128.82C858.715 130.103 859.606 131.615 860.16 133.262C860.715 134.908 860.92 136.651 860.762 138.381L856.781 182.131C856.499 185.237 855.066 188.125 852.764 190.228C850.461 192.332 847.456 193.499 844.337 193.5H779.656C776.538 193.499 773.532 192.332 771.23 190.228C768.928 188.125 767.495 185.237 767.213 182.131L763.231 138.381C762.97 135.487 763.726 132.591 765.369 130.194L765.125 124.75C765.125 121.435 766.442 118.255 768.786 115.911C771.13 113.567 774.31 112.25 777.625 112.25H800.575C803.89 112.251 807.069 113.568 809.413 115.912L814.587 121.088C816.931 123.432 820.11 124.749 823.425 124.75ZM771.413 125.5C772.754 125.004 774.179 124.754 775.688 124.75H809.413L804.994 120.331C803.822 119.159 802.232 118.5 800.575 118.5H777.625C775.988 118.5 774.416 119.142 773.247 120.288C772.078 121.435 771.406 122.994 771.375 124.631L771.413 125.5Z" fill="#754FFE"/>
    </g>
    <g id="Rectangle 5" filter="url(#filter1_b_18_235)">
    <rect x="749" y="132.199" width="125" height="68.3789" rx="8" fill="#754FFE" fill-opacity="0.37"/>
    </g>
    
    <path class="back-wire" d="M894 151H1081" stroke="#CCCCCC" stroke-width="5"/>
    <path class="front-wire" d="M894 151H1081" stroke="#754FFE" stroke-width="5" mask="url(#data-flow-gradient-mask)"/>
    <circle class="back-node" cx="884.5" cy="151.5" r="10.5" fill="#CCCCCC"/>
    <circle class="front-node" cx="884.5" cy="151.5" r="10.5" fill="#754FFE"/>
    <path class="back-wire" d="M1150 150C1235 150 1239 142 1240 259" stroke="#CCCCCC" stroke-width="5"/>
    <path class="front-wire" d="M1150 150C1235 150 1239 142 1240 259" stroke="#754FFE" stroke-width="5" mask="url(#data-flow-gradient-mask)"/>
    <circle class="back-node" cx="1239.5" cy="269.5" r="10.5" fill="#CCCCCC"/>
    <circle class="front-node" cx="1239.5" cy="269.5" r="10.5" fill="#754FFE"/>
    <g class="gears">
    <path class="gear gear-1" d="M1112.77 121.978L1112.77 121.976L1113.03 120.925C1113.03 120.924 1113.04 120.924 1113.04 120.923C1113.68 118.354 1117.32 118.359 1117.97 120.922C1117.97 120.923 1117.97 120.923 1117.97 120.924L1118.23 121.976L1118.23 121.978C1118.43 122.764 1118.83 123.483 1119.4 124.06C1119.97 124.638 1120.68 125.053 1121.46 125.263C1122.24 125.472 1123.07 125.468 1123.85 125.251C1124.63 125.035 1125.34 124.614 1125.9 124.032C1125.9 124.031 1125.9 124.031 1125.9 124.03L1126.65 123.254L1126.66 123.253C1128.5 121.351 1131.65 123.175 1130.92 125.715L1130.92 125.716L1130.63 126.764L1130.62 126.764C1130.4 127.542 1130.39 128.366 1130.6 129.149C1130.8 129.932 1131.21 130.647 1131.78 131.219C1132.35 131.791 1133.07 132.2 1133.85 132.402C1134.64 132.605 1135.46 132.595 1136.24 132.373C1136.24 132.373 1136.24 132.373 1136.24 132.373L1137.28 132.079L1137.29 132.078C1139.83 131.35 1141.65 134.506 1139.75 136.345L1139.75 136.347L1138.97 137.101C1138.97 137.101 1138.97 137.101 1138.97 137.102C1138.39 137.664 1137.97 138.372 1137.75 139.153C1137.53 139.933 1137.53 140.758 1137.74 141.54C1137.95 142.323 1138.36 143.035 1138.94 143.604C1139.52 144.172 1140.24 144.575 1141.02 144.771L1141.03 144.772L1142.08 145.033C1142.08 145.033 1142.08 145.033 1142.08 145.033C1144.65 145.681 1144.64 149.323 1142.08 149.966C1142.08 149.966 1142.08 149.966 1142.08 149.967L1141.03 150.228L1141.02 150.228C1140.24 150.425 1139.52 150.828 1138.94 151.396C1138.36 151.964 1137.95 152.677 1137.74 153.459C1137.53 154.242 1137.53 155.066 1137.75 155.847C1137.97 156.627 1138.39 157.336 1138.97 157.898C1138.97 157.898 1138.97 157.899 1138.97 157.899L1139.75 158.653L1139.75 158.654C1141.65 160.493 1139.83 163.65 1137.29 162.922L1137.29 162.922L1136.24 162.623L1136.24 162.623C1135.46 162.4 1134.64 162.39 1133.86 162.593C1133.07 162.796 1132.36 163.205 1131.78 163.778C1131.21 164.351 1130.8 165.066 1130.6 165.85C1130.4 166.633 1130.41 167.457 1130.63 168.235C1130.63 168.236 1130.63 168.236 1130.63 168.237L1130.92 169.28L1130.92 169.284C1131.65 171.827 1128.5 173.65 1126.66 171.747L1126.65 171.745L1125.9 170.969C1125.9 170.969 1125.9 170.969 1125.9 170.969C1125.34 170.386 1124.63 169.965 1123.85 169.748C1123.07 169.531 1122.24 169.528 1121.46 169.737C1120.68 169.946 1119.97 170.361 1119.4 170.939C1118.83 171.517 1118.43 172.236 1118.23 173.022L1118.23 173.023L1117.97 174.075C1117.97 174.075 1117.97 174.076 1117.97 174.076C1117.32 176.646 1113.68 176.641 1113.04 174.077C1113.04 174.077 1113.04 174.076 1113.04 174.076L1112.77 173.023L1112.77 173.022C1112.58 172.236 1112.17 171.517 1111.61 170.939C1111.04 170.361 1110.33 169.946 1109.54 169.737C1108.76 169.528 1107.94 169.531 1107.15 169.748C1106.37 169.965 1105.67 170.386 1105.1 170.968C1105.1 170.969 1105.1 170.969 1105.1 170.969L1104.35 171.745L1104.35 171.747C1102.51 173.649 1099.35 171.824 1100.08 169.284L1100.08 169.284L1100.38 168.241L1100.38 168.24C1100.6 167.462 1100.61 166.638 1100.41 165.854C1100.21 165.07 1099.8 164.354 1099.22 163.782C1098.65 163.209 1097.94 162.8 1097.15 162.597C1096.37 162.394 1095.55 162.404 1094.77 162.626C1094.77 162.626 1094.77 162.627 1094.76 162.627L1093.72 162.921L1093.72 162.922C1091.17 163.65 1089.35 160.494 1091.25 158.654L1091.26 158.653L1092.03 157.899C1092.03 157.898 1092.03 157.898 1092.03 157.897C1092.62 157.335 1093.04 156.627 1093.25 155.847C1093.47 155.066 1093.47 154.242 1093.26 153.459C1093.06 152.677 1092.64 151.964 1092.06 151.396C1091.48 150.828 1090.77 150.425 1089.98 150.228L1089.98 150.228L1088.93 149.967C1088.93 149.967 1088.93 149.967 1088.93 149.966C1086.36 149.319 1086.36 145.677 1088.92 145.033C1088.92 145.033 1088.93 145.033 1088.93 145.033L1089.98 144.772L1089.98 144.771C1090.77 144.575 1091.48 144.172 1092.06 143.604C1092.64 143.035 1093.06 142.323 1093.26 141.54C1093.47 140.758 1093.47 139.933 1093.25 139.153C1093.04 138.372 1092.62 137.664 1092.03 137.102C1092.03 137.101 1092.03 137.101 1092.03 137.101L1091.26 136.347L1091.25 136.345C1089.35 134.507 1091.18 131.35 1093.72 132.078L1093.72 132.078L1094.77 132.377L1094.77 132.377C1095.54 132.598 1096.37 132.608 1097.15 132.404C1097.93 132.201 1098.65 131.792 1099.22 131.219C1099.79 130.647 1100.2 129.932 1100.4 129.148C1100.61 128.365 1100.6 127.543 1100.38 126.765C1100.38 126.764 1100.37 126.764 1100.37 126.763L1100.08 125.719L1100.08 125.719L1100.08 125.715C1099.35 123.173 1102.51 121.35 1104.35 123.253L1104.35 123.254L1105.1 124.03C1105.1 124.03 1105.1 124.031 1105.1 124.031C1105.67 124.614 1106.37 125.035 1107.15 125.251C1107.94 125.468 1108.76 125.472 1109.54 125.263C1110.33 125.053 1111.04 124.638 1111.61 124.06C1112.17 123.483 1112.58 122.764 1112.77 121.978ZM1108 165.527C1110.07 166.361 1112.27 166.829 1114.5 166.914V166.93H1115.5C1120.66 166.93 1125.6 164.883 1129.24 161.239C1132.88 157.595 1134.93 152.653 1134.93 147.5C1134.93 142.347 1132.88 137.404 1129.24 133.761C1125.6 130.118 1120.66 128.072 1115.51 128.07C1112.94 128.034 1110.38 128.51 1108 129.469C1105.61 130.429 1103.43 131.854 1101.6 133.662C1099.77 135.47 1098.31 137.624 1097.32 139.999C1096.32 142.374 1095.81 144.923 1095.81 147.498C1095.81 150.073 1096.32 152.622 1097.32 154.997C1098.31 157.372 1099.77 159.526 1101.6 161.334C1103.43 163.142 1105.61 164.567 1108 165.527Z" stroke="#754FFE" stroke-width="2"/>
    <path class="gear gear-2" d="M1139.94 70.6827C1139.04 67.1058 1133.96 67.1058 1133.07 70.6827L1132.8 71.7373C1132.65 72.3502 1132.34 72.9109 1131.89 73.3613C1131.45 73.8117 1130.89 74.1353 1130.28 74.2986C1129.67 74.4619 1129.03 74.4589 1128.42 74.2899C1127.81 74.1209 1127.26 73.7921 1126.82 73.3377L1126.07 72.5596C1123.5 69.9083 1119.1 72.449 1120.12 75.9927L1120.41 77.0399C1120.59 77.6467 1120.59 78.2887 1120.44 78.8996C1120.28 79.5105 1119.96 80.068 1119.51 80.5144C1119.07 80.9608 1118.51 81.2799 1117.9 81.4386C1117.29 81.5973 1116.65 81.5898 1116.04 81.417L1114.99 81.1183C1111.45 80.1042 1108.91 84.5034 1111.56 87.0662L1112.34 87.8222C1112.79 88.2609 1113.12 88.8134 1113.29 89.4221C1113.46 90.0308 1113.46 90.6737 1113.3 91.2839C1113.14 91.8942 1112.81 92.4497 1112.36 92.8927C1111.91 93.3357 1111.35 93.6501 1110.74 93.8033L1109.68 94.0651C1106.11 94.9612 1106.11 100.039 1109.68 100.939L1110.74 101.2C1111.35 101.354 1111.91 101.668 1112.36 102.111C1112.81 102.554 1113.14 103.109 1113.3 103.72C1113.46 104.33 1113.46 104.973 1113.29 105.582C1113.12 106.19 1112.79 106.743 1112.34 107.182L1111.56 107.937C1108.91 110.5 1111.45 114.899 1114.99 113.885L1116.04 113.59C1116.65 113.417 1117.29 113.409 1117.9 113.567C1118.51 113.725 1119.07 114.044 1119.52 114.491C1119.96 114.937 1120.28 115.495 1120.44 116.106C1120.6 116.718 1120.59 117.36 1120.42 117.967L1120.12 119.011C1119.1 122.551 1123.5 125.095 1126.07 122.444L1126.82 121.666C1127.26 121.212 1127.81 120.883 1128.42 120.714C1129.03 120.545 1129.67 120.542 1130.28 120.705C1130.89 120.868 1131.45 121.192 1131.89 121.642C1132.34 122.093 1132.65 122.654 1132.8 123.266L1133.07 124.321C1133.96 127.898 1139.04 127.898 1139.94 124.321L1140.2 123.266C1140.35 122.654 1140.67 122.093 1141.11 121.642C1141.55 121.192 1142.11 120.868 1142.72 120.705C1143.33 120.542 1143.97 120.545 1144.58 120.714C1145.19 120.883 1145.74 121.212 1146.18 121.666L1146.94 122.444C1149.5 125.095 1153.9 122.555 1152.89 119.011L1152.59 117.964C1152.42 117.357 1152.41 116.714 1152.57 116.103C1152.73 115.491 1153.04 114.934 1153.49 114.487C1153.94 114.041 1154.5 113.722 1155.11 113.563C1155.72 113.405 1156.36 113.413 1156.97 113.587L1158.01 113.885C1161.55 114.899 1164.1 110.5 1161.44 107.937L1160.67 107.182C1160.21 106.743 1159.88 106.19 1159.71 105.582C1159.54 104.973 1159.54 104.33 1159.71 103.72C1159.87 103.109 1160.19 102.554 1160.64 102.111C1161.09 101.668 1161.65 101.354 1162.27 101.2L1163.32 100.939C1166.9 100.043 1166.9 94.9648 1163.32 94.0651L1162.27 93.8033C1161.65 93.6501 1161.09 93.3357 1160.64 92.8927C1160.19 92.4497 1159.87 91.8942 1159.71 91.2839C1159.54 90.6737 1159.54 90.0308 1159.71 89.4221C1159.88 88.8134 1160.21 88.2609 1160.67 87.8222L1161.44 87.0662C1164.1 84.5034 1161.55 80.1042 1158.01 81.1183L1156.96 81.4133C1156.36 81.5866 1155.71 81.5946 1155.1 81.4365C1154.49 81.2783 1153.94 80.9597 1153.49 80.5137C1153.04 80.0677 1152.72 79.5104 1152.57 78.8996C1152.41 78.2889 1152.41 77.6468 1152.59 77.0399L1152.89 75.9927C1153.9 72.4527 1149.5 69.9083 1146.94 72.5596L1146.18 73.3377C1145.74 73.7921 1145.19 74.1209 1144.58 74.2899C1143.97 74.4589 1143.33 74.4619 1142.72 74.2986C1142.11 74.1353 1141.55 73.8117 1141.11 73.3613C1140.67 72.9109 1140.35 72.3502 1140.2 71.7373L1139.94 70.6827ZM1136.5 115.928C1134.06 115.963 1131.64 115.512 1129.37 114.601C1127.1 113.69 1125.04 112.339 1123.3 110.624C1121.56 108.909 1120.18 106.866 1119.24 104.613C1118.3 102.36 1117.81 99.9422 1117.81 97.5C1117.81 95.0578 1118.3 92.6399 1119.24 90.3869C1120.18 88.1339 1121.56 86.0907 1123.3 84.3761C1125.04 82.6614 1127.1 81.3095 1129.37 80.3989C1131.64 79.4883 1134.06 79.0372 1136.5 79.0717C1141.39 79.0717 1146.08 81.0135 1149.53 84.4698C1152.99 87.9261 1154.93 92.6139 1154.93 97.5018C1154.93 102.39 1152.99 107.078 1149.53 110.534C1146.08 113.99 1141.39 115.932 1136.5 115.932V115.928Z" fill="#754FFE"/>
    </g>
    </g>
    </g>
    <g id="Project Folder_2">
    <g id="Rectangle 5_2" filter="url(#filter2_b_18_235)">
    <rect width="125" height="60" rx="8" transform="matrix(-1 0 0 1 640 1073)" fill="#754FFE" fill-opacity="0.37"/>
    </g>
    <path class="back-wire" d="M495 1108H308" stroke="#CCCCCC" stroke-width="5"/>
    <path class="front-wire" d="M495 1108H308" stroke="#7650FF" stroke-width="5" mask="url(#data-flow-gradient-mask)"/>
    <path class="back-wire" d="M240.5 1112H146.5C146.5 1112 104 1112 104 1066.5C104 1021 104 610 104 578.5C104 547 122.5 547 122.5 547H146.5" stroke="#CCCCCC" stroke-width="5"/>
    <path class="front-wire" d="M240.5 1112H146.5C146.5 1112 104 1112 104 1066.5C104 1021 104 610 104 578.5C104 547 122.5 547 122.5 547H146.5" stroke="#754FFE" stroke-width="5" mask="url(#data-flow-gradient-mask)"/>
    <circle class="back-node" cx="10.5" cy="10.5" r="10.5" transform="matrix(-1 0 0 1 515 1098)" fill="#CCCCCC"/>
    <circle class="front-node" cx="10.5" cy="10.5" r="10.5" transform="matrix(-1 0 0 1 515 1098)" fill="#754FFE"/>
    <circle class="back-node" cx="10.5" cy="10.5" r="10.5" transform="matrix(-1 0 0 1 167 536)" fill="#CCCCCC"/>
    <circle class="front-node" cx="10.5" cy="10.5" r="10.5" transform="matrix(-1 0 0 1 167 536)" fill="#754FFE"/>
    <g id="FolderFill_2">
    <path id="Vector_2" d="M565.575 1056.75H540.688C538.951 1056.75 537.233 1057.11 535.643 1057.81C534.054 1058.51 532.628 1059.54 531.457 1060.82C530.285 1062.1 529.394 1063.62 528.84 1065.26C528.285 1066.91 528.08 1068.65 528.238 1070.38L532.219 1114.13C532.501 1117.24 533.934 1120.13 536.236 1122.23C538.539 1124.33 541.544 1125.5 544.663 1125.5H609.344C612.462 1125.5 615.468 1124.33 617.77 1122.23C620.072 1120.13 621.505 1117.24 621.787 1114.13L625.769 1070.38C626.03 1067.49 625.274 1064.59 623.631 1062.19L623.875 1056.75C623.875 1053.43 622.558 1050.26 620.214 1047.91C617.87 1045.57 614.69 1044.25 611.375 1044.25H588.425C585.11 1044.25 581.931 1045.57 579.587 1047.91L574.413 1053.09C572.069 1055.43 568.89 1056.75 565.575 1056.75ZM617.587 1057.5C616.246 1057 614.821 1056.75 613.312 1056.75H579.587L584.006 1052.33C585.178 1051.16 586.768 1050.5 588.425 1050.5H611.375C613.012 1050.5 614.584 1051.14 615.753 1052.29C616.922 1053.43 617.594 1054.99 617.625 1056.63L617.587 1057.5Z" fill="#754FFE"/>
    </g>
    <g id="Lock Group">
    <g id="Ellipse 1" filter="url(#filter3_f_18_235)">
    <circle cx="35.5" cy="35.5" r="35.5" transform="matrix(-1 0 0 1 308 1073)" fill="#754FFE"/>
    </g>
    <g id="Lock">
    <path id="Vector_3" d="M272 1086.12C270.342 1086.12 268.753 1086.78 267.581 1087.96C266.408 1089.13 265.75 1090.72 265.75 1092.38V1104.88H278.25V1092.38C278.25 1090.72 277.592 1089.13 276.419 1087.96C275.247 1086.78 273.658 1086.12 272 1086.12ZM262.625 1104.88V1092.38C262.625 1089.89 263.613 1087.5 265.371 1085.75C267.129 1083.99 269.514 1083 272 1083C274.486 1083 276.871 1083.99 278.629 1085.75C280.387 1087.5 281.375 1089.89 281.375 1092.38V1104.88C283.033 1104.88 284.622 1105.53 285.794 1106.71C286.967 1107.88 287.625 1109.47 287.625 1111.12V1126.75C287.625 1128.41 286.967 1130 285.794 1131.17C284.622 1132.34 283.033 1133 281.375 1133H262.625C260.967 1133 259.378 1132.34 258.206 1131.17C257.033 1130 256.375 1128.41 256.375 1126.75V1111.12C256.375 1109.47 257.033 1107.88 258.206 1106.71C259.378 1105.53 260.967 1104.88 262.625 1104.88ZM281.375 1108H262.625C261.796 1108 261.001 1108.33 260.415 1108.92C259.829 1109.5 259.5 1110.3 259.5 1111.12V1126.75C259.5 1127.58 259.829 1128.37 260.415 1128.96C261.001 1129.55 261.796 1129.88 262.625 1129.88H281.375C282.204 1129.88 282.999 1129.55 283.585 1128.96C284.171 1128.37 284.5 1127.58 284.5 1126.75V1111.12C284.5 1110.3 284.171 1109.5 283.585 1108.92C282.999 1108.33 282.204 1108 281.375 1108Z" fill="white"/>
    </g>
    </g>
    </g>
    </g>
    <defs>
    <filter id="filter0_i_18_235" x="169" y="280" width="1253" height="731" filterUnits="userSpaceOnUse" color-interpolation-filters="sRGB">
    <feFlood flood-opacity="0" result="BackgroundImageFix"/>
    <feBlend mode="normal" in="SourceGraphic" in2="BackgroundImageFix" result="shape"/>
    <feColorMatrix in="SourceAlpha" type="matrix" values="0 0 0 0 0 0 0 0 0 0 0 0 0 0 0 0 0 0 127 0" result="hardAlpha"/>
    <feOffset dy="4"/>
    <feGaussianBlur stdDeviation="2"/>
    <feComposite in2="hardAlpha" operator="arithmetic" k2="-1" k3="1"/>
    <feColorMatrix type="matrix" values="0 0 0 0 0 0 0 0 0 0 0 0 0 0 0 0 0 0 0.25 0"/>
    <feBlend mode="normal" in2="shape" result="effect1_innerShadow_18_235"/>
    </filter>
    <filter id="filter1_b_18_235" x="745" y="128.199" width="133" height="76.3789" filterUnits="userSpaceOnUse" color-interpolation-filters="sRGB">
    <feFlood flood-opacity="0" result="BackgroundImageFix"/>
    <feGaussianBlur in="BackgroundImageFix" stdDeviation="2"/>
    <feComposite in2="SourceAlpha" operator="in" result="effect1_backgroundBlur_18_235"/>
    <feBlend mode="normal" in="SourceGraphic" in2="effect1_backgroundBlur_18_235" result="shape"/>
    </filter>
    <filter id="filter2_b_18_235" x="511" y="1069" width="133" height="68" filterUnits="userSpaceOnUse" color-interpolation-filters="sRGB">
        <feFlood flood-opacity="0" result="BackgroundImageFix"/>
        <feGaussianBlur in="BackgroundImageFix" stdDeviation="2"/>
        <feComposite in2="SourceAlpha" operator="in" result="effect1_backgroundBlur_18_235"/>
        <feBlend mode="normal" in="SourceGraphic" in2="effect1_backgroundBlur_18_235" result="shape"/>
        </filter>
        <filter id="filter3_f_18_235" x="233" y="1069" width="79" height="79" filterUnits="userSpaceOnUse" color-interpolation-filters="sRGB">
        <feFlood flood-opacity="0" result="BackgroundImageFix"/>
        <feBlend mode="normal" in="SourceGraphic" in2="BackgroundImageFix" result="shape"/>
        <feGaussianBlur stdDeviation="2" result="effect1_foregroundBlur_18_235"/>
        </filter>
        </defs>
</svg>