<svg width="400" height="400" viewBox="0 0 400 400" fill="none" xmlns="http://www.w3.org/2000/svg">
<g id="student-dojo-logo">
<rect width="400" height="400" rx="80" fill="url(#paint0_linear_1_2)"/>
<g id="text">
<g id="logo-text" filter="url(#filter1_i_1_2)">
<path d="M108.8 266.4L107.389 269.603C107.41 269.612 107.432 269.622 107.454 269.631L108.8 266.4ZM90 252.4L87.2075 254.51C87.225 254.533 87.2428 254.556 87.2609 254.579L90 252.4ZM82.4 232.2V228.7C81.4284 228.7 80.5006 229.104 79.8385 229.815C79.1764 230.526 78.8397 231.48 78.9089 232.449L82.4 232.2ZM120.4 232.2L123.862 231.687C123.608 229.971 122.135 228.7 120.4 228.7V232.2ZM141.6 230.2L142.996 226.99L142.996 226.99L141.6 230.2ZM126.4 225.8L127.173 222.386C127.144 222.38 127.115 222.374 127.086 222.368L126.4 225.8ZM106.4 220.4L105.171 223.677L105.171 223.677L106.4 220.4ZM92.4 210.6L89.7371 212.871C89.7498 212.886 89.7626 212.901 89.7756 212.916L92.4 210.6ZM92 174.2L94.901 176.158C94.9084 176.147 94.9158 176.136 94.9231 176.125L92 174.2ZM107.8 161.2L106.356 158.012C106.349 158.015 106.341 158.019 106.333 158.022L107.8 161.2ZM167.8 167.2L165.522 169.857L165.522 169.857L167.8 167.2ZM182.4 195.6V199.1C183.397 199.1 184.347 198.675 185.011 197.931C185.675 197.187 185.99 196.196 185.878 195.205L182.4 195.6ZM147 195.6L143.559 196.237C143.866 197.896 145.313 199.1 147 199.1V195.6ZM142.2 187.4L139.959 190.089C140.013 190.133 140.068 190.176 140.124 190.218L142.2 187.4ZM125 186.2L123.008 183.322C122.971 183.348 122.935 183.373 122.9 183.4L125 186.2ZM127.2 197.4L125.69 200.557C125.728 200.576 125.766 200.593 125.804 200.61L127.2 197.4ZM142 201.6L141.262 205.021L141.27 205.023L142 201.6ZM162.2 207.4L160.9 210.65C160.909 210.653 160.918 210.657 160.928 210.661L162.2 207.4ZM176.4 217.8L173.711 220.041C173.734 220.068 173.757 220.094 173.78 220.121L176.4 217.8ZM176.8 254.6L173.991 252.512C173.98 252.527 173.968 252.543 173.957 252.559L176.8 254.6ZM160.6 267L161.964 270.223C161.974 270.219 161.983 270.215 161.993 270.211L160.6 267ZM136 267.9C126.252 267.9 117.654 266.297 110.146 263.169L107.454 269.631C115.946 273.169 125.482 274.9 136 274.9V267.9ZM110.211 263.197C102.787 259.925 97.004 255.583 92.7391 250.221L87.2609 254.579C92.3294 260.951 99.0797 265.941 107.389 269.603L110.211 263.197ZM92.7925 250.29C88.665 244.827 86.376 238.739 85.8911 231.951L78.9089 232.449C79.4907 240.594 82.2684 247.973 87.2075 254.51L92.7925 250.29ZM82.4 235.7H120.4V228.7H82.4V235.7ZM116.938 232.713C117.601 237.192 119.744 240.861 123.366 243.448L127.434 237.752C125.456 236.339 124.265 234.408 123.862 231.687L116.938 232.713ZM123.366 243.448C126.871 245.952 131.087 247.1 135.8 247.1V240.1C132.246 240.1 129.529 239.248 127.434 237.752L123.366 243.448ZM135.8 247.1C139.45 247.1 142.781 246.343 145.434 244.448L141.366 238.752C140.286 239.523 138.55 240.1 135.8 240.1V247.1ZM145.434 244.448C148.14 242.516 149.7 239.76 149.7 236.4H142.7C142.7 237.307 142.394 238.018 141.366 238.752L145.434 244.448ZM149.7 236.4C149.7 234.319 149.115 232.355 147.861 230.665C146.635 229.013 144.927 227.83 142.996 226.99L140.204 233.41C141.34 233.903 141.931 234.421 142.239 234.835C142.518 235.212 142.7 235.681 142.7 236.4H149.7ZM142.996 226.99C139.607 225.517 134.266 223.992 127.173 222.386L125.627 229.214C132.668 230.808 137.46 232.216 140.204 233.41L142.996 226.99ZM127.086 222.368C119.199 220.791 112.728 219.035 107.629 217.123L105.171 223.677C110.738 225.765 117.601 227.609 125.714 229.232L127.086 222.368ZM107.629 217.123C102.865 215.337 98.6691 212.415 95.0244 208.284L89.7756 212.916C94.1309 217.852 99.2679 221.463 105.171 223.677L107.629 217.123ZM95.0629 208.329C91.8806 204.598 90.1 199.353 90.1 192.2H83.1C83.1 200.513 85.1861 207.536 89.7371 212.871L95.0629 208.329ZM90.1 192.2C90.1 186.204 91.7061 180.891 94.901 176.158L89.099 172.242C85.0939 178.175 83.1 184.862 83.1 192.2H90.1ZM94.9231 176.125C98.1077 171.289 102.826 167.351 109.267 164.378L106.333 158.022C98.9075 161.449 93.0923 166.178 89.0769 172.275L94.9231 176.125ZM109.244 164.388C115.751 161.442 123.701 159.9 133.2 159.9V152.9C122.966 152.9 113.982 154.558 106.356 158.012L109.244 164.388ZM133.2 159.9C147.307 159.9 157.938 163.357 165.522 169.857L170.078 164.543C160.862 156.643 148.427 152.9 133.2 152.9V159.9ZM165.522 169.857C173.203 176.441 177.682 185.076 178.922 195.995L185.878 195.205C184.452 182.658 179.197 172.359 170.078 164.543L165.522 169.857ZM182.4 192.1H147V199.1H182.4V192.1ZM150.441 194.963C149.641 190.642 147.641 187.062 144.276 184.582L140.124 190.218C141.826 191.472 143.025 193.358 143.559 196.237L150.441 194.963ZM144.441 184.711C141.233 182.038 137.085 180.9 132.4 180.9V187.9C135.981 187.9 138.367 188.762 139.959 190.089L144.441 184.711ZM132.4 180.9C128.834 180.9 125.558 181.557 123.008 183.322L126.992 189.078C127.909 188.443 129.566 187.9 132.4 187.9V180.9ZM122.9 183.4C120.352 185.311 119.1 188.051 119.1 191.2H126.1C126.1 190.083 126.448 189.489 127.1 189L122.9 183.4ZM119.1 191.2C119.1 195.608 121.808 198.701 125.69 200.557L128.71 194.243C126.459 193.166 126.1 192.125 126.1 191.2H119.1ZM125.804 200.61C129.206 202.089 134.424 203.546 141.262 205.021L142.738 198.179C135.976 196.72 131.327 195.378 128.596 194.19L125.804 200.61ZM141.27 205.023C149.287 206.732 155.813 208.615 160.9 210.65L163.5 204.15C157.92 201.918 150.979 199.935 142.73 198.177L141.27 205.023ZM160.928 210.661C165.808 212.565 170.064 215.664 173.711 220.041L179.089 215.559C174.736 210.336 169.525 206.502 163.472 204.139L160.928 210.661ZM173.78 220.121C177.192 223.973 179.1 229.455 179.1 237H186.1C186.1 228.278 183.875 220.961 179.02 215.479L173.78 220.121ZM179.1 237C179.1 242.788 177.405 247.921 173.991 252.512L179.609 256.688C183.928 250.879 186.1 244.279 186.1 237H179.1ZM173.957 252.559C170.661 257.15 165.812 260.923 159.207 263.789L161.993 270.211C169.522 266.944 175.472 262.45 179.643 256.641L173.957 252.559ZM159.236 263.777C152.83 266.487 145.115 267.9 136 267.9V274.9C145.819 274.9 154.503 273.38 161.964 270.223L159.236 263.777ZM197.672 183.4L194.532 181.854C194.525 181.867 194.519 181.88 194.513 181.893L197.672 183.4ZM215.072 163.4L213.193 160.447L213.193 160.447L215.072 163.4ZM258.672 161L256.991 164.07C257.02 164.086 257.049 164.101 257.078 164.116L258.672 161ZM272.072 173.2L269.091 175.034C269.912 176.368 271.518 176.994 273.025 176.568C274.532 176.141 275.572 174.766 275.572 173.2H272.072ZM272.072 122V118.5C270.139 118.5 268.572 120.067 268.572 122H272.072ZM311.472 122H314.972C314.972 120.067 313.405 118.5 311.472 118.5V122ZM311.472 270V273.5C313.405 273.5 314.972 271.933 314.972 270H311.472ZM272.072 270H268.572C268.572 271.933 270.139 273.5 272.072 273.5V270ZM272.072 254.4H275.572C275.572 252.822 274.516 251.439 272.993 251.023C271.471 250.608 269.859 251.263 269.057 252.622L272.072 254.4ZM259.072 266.8L257.391 263.73L259.072 266.8ZM214.872 264.4L212.968 267.337C212.976 267.342 212.985 267.348 212.993 267.353L214.872 264.4ZM197.672 244.4L194.504 245.888C194.513 245.907 194.522 245.927 194.532 245.946L197.672 244.4ZM266.272 196.8L263.716 199.191C263.729 199.205 263.743 199.22 263.757 199.234L266.272 196.8ZM237.272 196.8L239.788 199.233C239.802 199.219 239.815 199.205 239.828 199.191L237.272 196.8ZM237.272 231L234.678 233.35C234.691 233.364 234.703 233.378 234.716 233.391L237.272 231ZM266.272 231L263.757 228.566C263.743 228.58 263.729 228.595 263.716 228.609L266.272 231ZM194.972 213.8C194.972 202.615 196.964 193.015 200.831 184.907L194.513 181.893C190.113 191.118 187.972 201.785 187.972 213.8H194.972ZM200.812 184.946C204.828 176.789 210.218 170.638 216.951 166.353L213.193 160.447C205.259 165.496 199.049 172.678 194.532 181.854L200.812 184.946ZM216.951 166.353C223.706 162.054 231.185 159.9 239.472 159.9V152.9C229.892 152.9 221.104 155.413 213.193 160.447L216.951 166.353ZM239.472 159.9C246.16 159.9 251.969 161.32 256.991 164.07L260.353 157.93C254.175 154.547 247.183 152.9 239.472 152.9V159.9ZM257.078 164.116C262.273 166.774 266.246 170.411 269.091 175.034L275.053 171.366C271.498 165.589 266.538 161.093 260.266 157.884L257.078 164.116ZM275.572 173.2V122H268.572V173.2H275.572ZM272.072 125.5H311.472V118.5H272.072V125.5ZM307.972 122V270H314.972V122H307.972ZM311.472 266.5H272.072V273.5H311.472V266.5ZM275.572 270V254.4H268.572V270H275.572ZM269.057 252.622C266.329 257.248 262.471 260.948 257.391 263.73L260.753 269.87C266.873 266.519 271.681 261.952 275.087 256.178L269.057 252.622ZM257.391 263.73C252.396 266.465 246.396 267.9 239.272 267.9V274.9C247.348 274.9 254.548 273.268 260.753 269.87L257.391 263.73ZM239.272 267.9C230.985 267.9 223.506 265.746 216.751 261.447L212.993 267.353C220.904 272.387 229.692 274.9 239.272 274.9V267.9ZM216.776 261.463C210.17 257.182 204.836 251.027 200.812 242.854L194.532 245.946C199.042 255.106 205.174 262.285 212.968 267.337L216.776 261.463ZM200.84 242.912C196.963 234.659 194.972 224.984 194.972 213.8H187.972C187.972 225.816 190.114 236.541 194.504 245.888L200.84 242.912ZM275.772 213.8C275.772 205.932 273.568 199.306 268.787 194.366L263.757 199.234C266.976 202.56 268.772 207.268 268.772 213.8H275.772ZM268.828 194.409C264.29 189.558 258.56 187.1 251.872 187.1V194.1C256.651 194.1 260.521 195.775 263.716 199.191L268.828 194.409ZM251.872 187.1C245.076 187.1 239.271 189.54 234.716 194.409L239.828 199.191C243.006 195.794 246.934 194.1 251.872 194.1V187.1ZM234.755 194.367C230.077 199.207 227.972 205.857 227.972 213.8H234.972C234.972 207.076 236.733 202.393 239.788 199.233L234.755 194.367ZM227.972 213.8C227.972 221.642 230.092 228.29 234.678 233.35L239.865 228.65C236.718 225.177 234.972 220.358 234.972 213.8H227.972ZM234.716 233.391C239.271 238.26 245.076 240.7 251.872 240.7V233.7C246.934 233.7 243.006 232.006 239.828 228.609L234.716 233.391ZM251.872 240.7C258.56 240.7 264.29 238.242 268.828 233.391L263.716 228.609C260.521 232.024 256.651 233.7 251.872 233.7V240.7ZM268.787 233.434C273.579 228.482 275.772 221.781 275.772 213.8H268.772C268.772 220.486 266.964 225.251 263.757 228.566L268.787 233.434Z" fill="white"/>
</g>
<g id="grad-cap-icon" filter="url(#filter2_i_1_2)">
<path d="M250.461 76.8184L202.879 50.6121C202.151 50.2106 201.332 50 200.5 50C199.668 50 198.849 50.2106 198.121 50.6121L150.539 76.8184C149.77 77.2434 149.129 77.8663 148.682 78.6224C148.236 79.3785 148 80.2402 148 81.1179C148 81.9956 148.236 82.8573 148.682 83.6135C149.129 84.3696 149.77 84.9925 150.539 85.4174L159.481 90.3311V109.888C159.478 111.901 160.222 113.844 161.569 115.342C167.123 121.537 179.58 131.897 200.5 131.897C206.056 131.927 211.585 131.133 216.907 129.542V140.086C216.907 141.389 217.426 142.639 218.349 143.561C219.272 144.482 220.524 145 221.83 145C223.135 145 224.387 144.482 225.31 143.561C226.233 142.639 226.752 141.389 226.752 140.086V125.394C231.506 122.773 235.791 119.382 239.431 115.358C240.778 113.86 241.522 111.917 241.519 109.904V90.3475L250.461 85.4338C251.23 85.0088 251.871 84.3859 252.318 83.6298C252.764 82.8737 253 82.012 253 81.1343C253 80.2566 252.764 79.3948 252.318 78.6387C251.871 77.8826 251.23 77.2597 250.461 76.8348V76.8184ZM200.5 60.5295L237.893 81.122L224.291 88.6154C224.265 88.6003 224.241 88.5839 224.217 88.5662L202.887 76.8184C201.749 76.2309 200.425 76.11 199.198 76.4815C197.972 76.853 196.939 77.6876 196.319 78.8077C195.699 79.9279 195.541 81.2452 195.879 82.4796C196.217 83.7139 197.025 84.7679 198.129 85.4174L214.126 94.217L200.5 101.719L163.107 81.122L200.5 60.5295ZM200.5 122.069C183.92 122.069 173.981 114.261 169.326 109.265V95.7525L198.121 111.616C198.849 112.017 199.668 112.228 200.5 112.228C201.332 112.228 202.151 112.017 202.879 111.616L216.907 103.905V119.15C211.666 121.127 206.103 122.117 200.5 122.069ZM231.674 109.265C230.165 110.88 228.518 112.361 226.752 113.692V98.4796L231.674 95.7689V109.265Z" fill="white"/>
</g>
</g>
</g>
<defs>
<filter id="filter1_i_1_2" x="78.9" y="118.5" width="236.072" height="160.4" filterUnits="userSpaceOnUse" color-interpolation-filters="sRGB">
<feFlood flood-opacity="0" result="BackgroundImageFix"/>
<feBlend mode="normal" in="SourceGraphic" in2="BackgroundImageFix" result="shape"/>
<feColorMatrix in="SourceAlpha" type="matrix" values="0 0 0 0 0 0 0 0 0 0 0 0 0 0 0 0 0 0 127 0" result="hardAlpha"/>
<feOffset dy="4"/>
<feGaussianBlur stdDeviation="2"/>
<feComposite in2="hardAlpha" operator="arithmetic" k2="-1" k3="1"/>
<feColorMatrix type="matrix" values="0 0 0 0 0 0 0 0 0 0 0 0 0 0 0 0 0 0 0.25 0"/>
<feBlend mode="normal" in2="shape" result="effect1_innerShadow_1_2"/>
</filter>
<filter id="filter2_i_1_2" x="148" y="50" width="105" height="99" filterUnits="userSpaceOnUse" color-interpolation-filters="sRGB">
<feFlood flood-opacity="0" result="BackgroundImageFix"/>
<feBlend mode="normal" in="SourceGraphic" in2="BackgroundImageFix" result="shape"/>
<feColorMatrix in="SourceAlpha" type="matrix" values="0 0 0 0 0 0 0 0 0 0 0 0 0 0 0 0 0 0 127 0" result="hardAlpha"/>
<feOffset dy="4"/>
<feGaussianBlur stdDeviation="2"/>
<feComposite in2="hardAlpha" operator="arithmetic" k2="-1" k3="1"/>
<feColorMatrix type="matrix" values="0 0 0 0 0 0 0 0 0 0 0 0 0 0 0 0 0 0 0.25 0"/>
<feBlend mode="normal" in2="shape" result="effect1_innerShadow_1_2"/>
</filter>
<linearGradient id="paint0_linear_1_2" x1="-10" y1="200" x2="414.45" y2="184.715" gradientUnits="userSpaceOnUse">
<stop stop-color="#833AB4"/>
<stop offset="0.505" stop-color="#9D1E7E"/>
</linearGradient>
</defs>
</svg>
