<svg width="400" height="400" viewBox="0 0 400 400" fill="none" xmlns="http://www.w3.org/2000/svg">
<g id="student-dojo-logo">
<rect width="400" height="400" rx="80" fill="url(#paint0_linear_1_2)"/>
<g id="text">
<g id="dojo" filter="url(#filter1_i_1_2)">
<path d="M62.072 280.032C62.072 272.608 63.3947 266.123 66.04 260.576C68.7707 255.029 72.4827 250.763 77.176 247.776C81.8693 244.789 87.0747 243.296 92.792 243.296C97.4 243.296 101.496 244.277 105.08 246.24C108.749 248.117 111.608 250.72 113.656 254.048V221.28H138.872V316H113.656V306.016C111.693 309.344 108.92 311.989 105.336 313.952C101.752 315.915 97.528 316.896 92.664 316.896C86.9467 316.896 81.7413 315.403 77.048 312.416C72.44 309.429 68.7707 305.163 66.04 299.616C63.3947 293.984 62.072 287.456 62.072 280.032ZM113.784 280.032C113.784 275.424 112.504 271.797 109.944 269.152C107.469 266.507 104.397 265.184 100.728 265.184C96.9733 265.184 93.8587 266.507 91.384 269.152C88.9093 271.712 87.672 275.339 87.672 280.032C87.672 284.64 88.9093 288.309 91.384 291.04C93.8587 293.685 96.9733 295.008 100.728 295.008C104.397 295.008 107.469 293.685 109.944 291.04C112.504 288.395 113.784 284.725 113.784 280.032ZM184.016 316.896C176.848 316.896 170.405 315.403 164.688 312.416C159.056 309.429 154.619 305.163 151.376 299.616C148.133 294.069 146.512 287.541 146.512 280.032C146.512 272.608 148.133 266.123 151.376 260.576C154.704 255.029 159.184 250.763 164.816 247.776C170.533 244.789 176.976 243.296 184.144 243.296C191.312 243.296 197.712 244.789 203.344 247.776C209.061 250.763 213.541 255.029 216.784 260.576C220.112 266.123 221.776 272.608 221.776 280.032C221.776 287.456 220.112 293.984 216.784 299.616C213.541 305.163 209.061 309.429 203.344 312.416C197.627 315.403 191.184 316.896 184.016 316.896ZM184.016 295.136C187.515 295.136 190.416 293.856 192.72 291.296C195.109 288.651 196.304 284.896 196.304 280.032C196.304 275.168 195.109 271.456 192.72 268.896C190.416 266.336 187.557 265.056 184.144 265.056C180.731 265.056 177.872 266.336 175.568 268.896C173.264 271.456 172.112 275.168 172.112 280.032C172.112 284.981 173.221 288.736 175.44 291.296C177.659 293.856 180.517 295.136 184.016 295.136ZM241.967 237.536C237.53 237.536 233.946 236.341 231.215 233.952C228.57 231.477 227.247 228.405 227.247 224.736C227.247 220.981 228.57 217.867 231.215 215.392C233.946 212.917 237.53 211.68 241.967 211.68C246.319 211.68 249.818 212.917 252.463 215.392C255.194 217.867 256.559 220.981 256.559 224.736C256.559 228.405 255.194 231.477 252.463 233.952C249.818 236.341 246.319 237.536 241.967 237.536ZM254.511 323.04C254.511 341.216 245.38 350.304 227.119 350.304H218.031V328.928H223.407C225.54 328.928 227.076 328.501 228.015 327.648C228.954 326.795 229.423 325.387 229.423 323.424V244.192H254.511V323.04ZM299.521 316.896C292.353 316.896 285.91 315.403 280.193 312.416C274.561 309.429 270.124 305.163 266.881 299.616C263.638 294.069 262.017 287.541 262.017 280.032C262.017 272.608 263.638 266.123 266.881 260.576C270.209 255.029 274.689 250.763 280.321 247.776C286.038 244.789 292.481 243.296 299.649 243.296C306.817 243.296 313.217 244.789 318.849 247.776C324.566 250.763 329.046 255.029 332.289 260.576C335.617 266.123 337.281 272.608 337.281 280.032C337.281 287.456 335.617 293.984 332.289 299.616C329.046 305.163 324.566 309.429 318.849 312.416C313.132 315.403 306.689 316.896 299.521 316.896ZM299.521 295.136C303.02 295.136 305.921 293.856 308.225 291.296C310.614 288.651 311.809 284.896 311.809 280.032C311.809 275.168 310.614 271.456 308.225 268.896C305.921 266.336 303.062 265.056 299.649 265.056C296.236 265.056 293.377 266.336 291.073 268.896C288.769 271.456 287.617 275.168 287.617 280.032C287.617 284.981 288.726 288.736 290.945 291.296C293.164 293.856 296.022 295.136 299.521 295.136Z" fill="white"/>
</g>
<g id="grad-cap-icon" filter="url(#filter2_i_1_2)">
<path d="M301.825 87.766L204.849 34.2499C203.364 33.43 201.696 33 200 33C198.304 33 196.636 33.43 195.151 34.2499L98.1753 87.766C96.6073 88.6338 95.3003 89.9058 94.3901 91.4499C93.48 92.9939 93 94.7536 93 96.546C93 98.3385 93.48 100.098 94.3901 101.642C95.3003 103.186 96.6073 104.458 98.1753 105.326L116.4 115.36V155.297C116.394 159.408 117.91 163.375 120.655 166.435C131.975 179.086 157.364 200.242 200 200.242C211.323 200.303 222.592 198.682 233.44 195.434V216.966C233.44 219.627 234.497 222.179 236.378 224.061C238.26 225.943 240.811 227 243.472 227C246.133 227 248.684 225.943 250.566 224.061C252.447 222.179 253.504 219.627 253.504 216.966V186.963C263.193 181.611 271.926 174.685 279.345 166.468C282.09 163.409 283.606 159.441 283.6 155.33V115.394L301.825 105.359C303.393 104.492 304.7 103.22 305.61 101.676C306.52 100.132 307 98.3719 307 96.5795C307 94.7871 306.52 93.0274 305.61 91.4833C304.7 89.9393 303.393 88.6672 301.825 87.7995V87.766ZM200 54.5024L276.21 96.5544L248.488 111.857C248.436 111.826 248.386 111.792 248.337 111.756L204.866 87.766C202.545 86.5662 199.847 86.3194 197.347 87.078C194.847 87.8366 192.741 89.5409 191.478 91.8284C190.215 94.1158 189.894 96.806 190.583 99.3267C191.272 101.847 192.917 104 195.168 105.326L227.772 123.296L200 138.615L123.79 96.5544L200 54.5024ZM200 180.173C166.209 180.173 145.953 164.227 136.464 154.026V126.431L195.151 158.825C196.636 159.645 198.304 160.075 200 160.075C201.696 160.075 203.364 159.645 204.849 158.825L233.44 143.08V174.211C222.758 178.249 211.419 180.27 200 180.173ZM263.536 154.026C260.46 157.324 257.104 160.349 253.504 163.065V132L263.536 126.465V154.026Z" fill="white"/>
</g>
</g>
</g>
<defs>
<filter id="filter1_i_1_2" x="62.072" y="211.68" width="275.209" height="142.624" filterUnits="userSpaceOnUse" color-interpolation-filters="sRGB">
<feFlood flood-opacity="0" result="BackgroundImageFix"/>
<feBlend mode="normal" in="SourceGraphic" in2="BackgroundImageFix" result="shape"/>
<feColorMatrix in="SourceAlpha" type="matrix" values="0 0 0 0 0 0 0 0 0 0 0 0 0 0 0 0 0 0 127 0" result="hardAlpha"/>
<feOffset dy="4"/>
<feGaussianBlur stdDeviation="2"/>
<feComposite in2="hardAlpha" operator="arithmetic" k2="-1" k3="1"/>
<feColorMatrix type="matrix" values="0 0 0 0 0 0 0 0 0 0 0 0 0 0 0 0 0 0 0.25 0"/>
<feBlend mode="normal" in2="shape" result="effect1_innerShadow_1_2"/>
</filter>
<filter id="filter2_i_1_2" x="93" y="33" width="214" height="198" filterUnits="userSpaceOnUse" color-interpolation-filters="sRGB">
<feFlood flood-opacity="0" result="BackgroundImageFix"/>
<feBlend mode="normal" in="SourceGraphic" in2="BackgroundImageFix" result="shape"/>
<feColorMatrix in="SourceAlpha" type="matrix" values="0 0 0 0 0 0 0 0 0 0 0 0 0 0 0 0 0 0 127 0" result="hardAlpha"/>
<feOffset dy="4"/>
<feGaussianBlur stdDeviation="2"/>
<feComposite in2="hardAlpha" operator="arithmetic" k2="-1" k3="1"/>
<feColorMatrix type="matrix" values="0 0 0 0 0 0 0 0 0 0 0 0 0 0 0 0 0 0 0.25 0"/>
<feBlend mode="normal" in2="shape" result="effect1_innerShadow_1_2"/>
</filter>
<linearGradient id="paint0_linear_1_2" x1="-10" y1="200" x2="414.45" y2="184.715" gradientUnits="userSpaceOnUse">
<stop stop-color="#833AB4"/>
<stop offset="0.505" stop-color="#9D1E7E"/>
</linearGradient>
</defs>
</svg>
