<svg xmlns="http://www.w3.org/2000/svg" viewBox="0 0 2442.9 2017.6"><style>._1319263448__st18{fill:#00c4cc}._1319263448__st19{fill:#ffd5c2}._1319263448__st20{fill:#e0a38d}._1319263448__st21{fill:#d7bdff}._1319263448__st22{fill:#9359ef}._1319263448__st25{fill:#8f64f4}._1319263448__st28{fill:#381177}._1319263448__st37{fill:#fff}._1319263448__st50{fill:#f5f5fc}._1319263448__st53{fill:#a58fff}._1319263448__st56{fill:#846cea}._1319263448__st57{fill:#473cdd}._1319263448__st58{fill:#ffc8bb}._1319263448__st60{fill:#eda69d}._1319263448__st63{fill:#6131bc}._1319263448__st64{fill:#efb7a0}._1319263448__st65{fill:#e8e6ff}._1319263448__st66{fill:#a55656}._1319263448__st68{fill:#30171b}._1319263448__st69{fill:#ccc0ff}._1319263448__st71{fill:#6a37cc}._1319263448__st74{fill:#dcd7ff}</style><g id="_1319263448__Layer_15"><path d="M2433 2018.8h-947.7l-253.1-1.3-1103.4 1.3s-42.7-143.3 86.8-252.4c129.6-109 197.5-8.2 207.8-181 10.3-172.8 129.6-199.5 162.5-213.9 32.9-14.4 69.9-55.5 51.4-125.5-18.5-69.9 16.5-244.8 228.3-267.4h829.7c187.7-10.3 253.6 169.9 228.3 267.4-18.2 70 18.5 111.1 51.4 125.5 32.9 14.4 152.2 41.1 162.5 213.9 10.3 172.8 78.2 72 207.8 181 116.1 97.5 93.7 226.3 87.7 252.4z" fill="#eee9ff"/><path class="_1319263448__st50" d="M739.4 601.2h1083.9v563H739.4z"/><linearGradient id="_1319263448__SVGID_1_" gradientUnits="userSpaceOnUse" x1="739.9" y1="622.229" x2="1823.118" y2="622.229"><stop offset="0" stop-color="#4204bf"/><stop offset=".502" stop-color="#6127e6"/><stop offset=".513" stop-color="#6329e7"/><stop offset=".712" stop-color="#8245f1"/><stop offset=".881" stop-color="#9456f7"/><stop offset="1" stop-color="#9b5cf9"/></linearGradient><path fill="url(#_1319263448__SVGID_1_)" d="M739.9 600h1083.2v44.6H739.9z"/><path fill="#d6cfff" d="M766 644.4h224.2v492.4H766z"/><path class="_1319263448__st37" d="M1754.8 1251.1H807.7c-37.7 0-68.2-30.5-68.2-68.2v-28.4H1823v28.4c0 37.7-30.5 68.2-68.2 68.2z"/><path class="_1319263448__st53" d="M1788.2 553.8H774.3c-19.2 0-34.9 15.6-34.9 34.8v6.2h-.7v563.4H1823V588.6c0-19.2-15.6-34.8-34.8-34.8zM772 1128.1V600.9h1017.7v527.2H772z"/><path fill="#ffaeec" d="M1124.1 761.6h531.4v366.9h-531.4z"/><path fill="#f78be3" d="M1578.7 1089h-186.5l93.3-173.4 34.5 64.3 29.4 54.7z"/><path fill="#e260cf" d="M1474.4 1089H1204l135.2-251.5 50.1 93.2 42.7 79.4z"/><linearGradient id="_1319263448__SVGID_2_" gradientUnits="userSpaceOnUse" x1="1922.002" y1="1275.47" x2="2236.24" y2="556.348"><stop offset="0" stop-color="#e476ea"/><stop offset="1" stop-color="#ffd1ab"/></linearGradient><path d="M2397.5 798.6c-6.2 126.3-76.6 234-201.4 274.7-.3.1-.6.2-1 .3-32.1 10.3-67.8 16.3-106.9 17-12.6.2-25.1-.5-37.2-2.2h-.1c-2.7-.4-5.4-.8-8.2-1.3-17.1-3-33.7-7.8-49.4-14.2-1.7-.7-3.4-1.4-5-2.2-1.1-.5-2.2-1-3.3-1.4-2-.9-3.9-1.8-5.9-2.7-1.7-.8-3.4-1.7-5-2.6-15.8-8.2-30.7-18-44.4-29.4-40.1-33.3-69.7-79.2-82.9-131.4-5-19.8-7.7-40.5-7.7-61.8 0-10.2.6-20.1 1.8-29.8 8.5-66.6 49.1-121.2 160-158.1 75.3-25.1 96.6-118.5 193.5-134.1 133.7-21.5 208.7 162.7 203.1 279.2z" fill="url(#_1319263448__SVGID_2_)"/><linearGradient id="_1319263448__SVGID_3_" gradientUnits="userSpaceOnUse" x1="19.256" y1="1178.151" x2="528.117" y2="720.935"><stop offset="0" stop-color="#e476ea"/><stop offset="1" stop-color="#ffd1ab"/></linearGradient><path d="M631.8 1027.7c-82.5 141.5-313.6 163.1-456.3 82.8-188.4-106-205.4-240-143.5-346.2 38-65.1 120.4-111 252.9-97.9 60.3 6 67.8-36.8 112.2-60.9s113.3-34 149.5-8.7C632 656.5 594 752 567.1 776.4c-49.6 45.1-37.6 85.8 10.6 102.6 72.4 25.3 92.3 83 54.1 148.7z" fill="url(#_1319263448__SVGID_3_)"/><path class="_1319263448__st21" d="M2219.8 1798l-5.2 30.4-4.1 24.5-28.2 165.6h-183.5l-23.7-165.6-3.5-24.5-4.3-30.4z"/><path class="_1319263448__st21" d="M2227.5 1828.7h-270.4l-14.2-63h301.3z"/><path class="_1319263448__st53" d="M703.3 1469.9l-.2 1.3-3.9 23-17 99.2-17.2 101.1-55.1 322.7h-39.5l54.6-319.5 13.1-76.6 21.6-126.9 4-23 .2-1.3zm1237.4 548.9h-39.4l-89.8-524.6-3.9-23-.2-1.3h39.4l.2 1.3 4 23z"/><path class="_1319263448__st56" d="M703.1 1471.2l-3.9 23h-39.5l4-23zm1147.9 23h-39.5l-3.9-23h39.4zm-1168.8 99.2c-.4.1-.7.2-1.1.4-18.6 6-32.6 15.7-43.1 27.3l-13.1 76.7c9.1-8.3 18.3-3.6 18.3-3.6 8 1.9 15.2 1.8 21.7.4l17.3-101.2z"/><path class="_1319263448__st37" d="M602 1409.1h1358.1v61.9H602z"/><path class="_1319263448__st57" d="M1492.8 1394.2h166.1v14.2h-166.1z"/><path class="_1319263448__st58" d="M1504.9 1361.4s-.6-8.7 9-14.1c5-2.8 12.3-6.7 16.7-8.9 4.4-2.2 25.7-4.9 31.2 3.8s6.6 27.9 1.1 40c-5.5 12-11 21.9-11 21.9l-34-14.2-13-28.5z"/><path class="_1319263448__st57" d="M1529.9 1346.2l-1.8-.6 17.1-52.9c.8-2.4 3.4-3.7 5.8-3h.1c2.4.8 3.7 3.4 3 5.8l-14.8 45.9c-1.4 4-5.6 6.1-9.4 4.8z"/><path d="M1563.3 1399.4s-10.1 26.3-35.8 42.8c-19.9 12.9-49.2 19.8-90.3 4.2v67.8h-321.9l1.4-50.2s-13.9 1.7-25.4-4.7c-.5-.3-.9-.5-1.3-.8-.2-.1-.3-.2-.5-.3-7.6-4.8-13.8-13.5-13.8-28.8 0-39.5 13.4-194 102.5-223.4l183.7-4.3s58.3-1.9 86.6 48.9c28.2 50.8 67.8 116.7 67.8 116.7s33.2-5.6 47 32.1z" fill="#ad83ff"/><path class="_1319263448__st25" d="M1527.4 1442.2c-19.9 12.9-49.2 19.8-90.3 4.2v-107.9c.1 0 32.6 123.1 90.3 103.7z"/><path d="M1079.7 1473.7l1.3-.3c-.4.2-.8.3-1.3.3z" fill="#9e72f2"/><path class="_1319263448__st25" d="M1129.1 1298.6l-12.3 165.4s-13.9 1.7-25.4-4.7c-.5-.3-.9-.5-1.3-.8 17.8-45 38.1-154.9 39-159.9z"/><path class="_1319263448__st58" d="M1233.9 1926.1c-.1.3-.1.7-.1 1-.5 3.8-.9 8.1-1.3 12.9-.8 9.6-1.3 20.7-.8 31.6l.3.1-.8 11.3h-47.5l-.6-11.3.2-.1c.5-10.8 0-22-.8-31.6-.4-4.8-.8-9.1-1.3-12.9-.1-.4-.1-.7-.1-1h52.8zm139.6 0c-.1.3-.1.7-.1 1-.5 3.8-.9 8.1-1.3 12.9-.8 9.6-1.3 20.7-.8 31.6l.2.1-.6 11.3h-47.5l-.8-11.3.3-.1c.5-10.8 0-22-.8-31.6-.4-4.4-.8-8.5-1.2-12.1l-.1-.8c-.1-.4-.1-.7-.1-1h52.8z"/><path class="_1319263448__st60" d="M1233.8 1927.1c-.5 3.8-.9 8.1-1.3 12.9h-50c-.4-4.8-.8-9.1-1.3-12.9h52.6zm139.6 0c-.5 3.8-.9 8.1-1.3 12.9h-50l-1.2-12.1-.1-.8h52.6z"/><path class="_1319263448__st28" d="M1165.5 2018.6s1.7-36.6 17.7-54.8c0 0 24.4-17.1 48.4 0 0 0 4.9 11 9.9 17.5 6.3 8.4 12.8 17.1 10.9 36.9l-86.9.4zm224.1 0s-3.4-40.3-18.3-54.8c0 0-22.7-16.1-48.4 0 0 0-4.9 11-9.9 17.5-6.3 8.4-12.8 17.1-10.9 36.9l87.5.4z"/><path class="_1319263448__st57" d="M1268.1 1697.1l-.7 10.8-.2 5.7-2.4 60.5-1.5 36.5-7.1 116.3h-92.6l-5.3-116.3-1.1-36.5-1.9-60.5-.1-5.7-.5-10.8zm136.9 0l-.7 10.8-.2 5.7-2.5 60.5-1.5 36.5-7 116.3h-92.6l-5.3-116.3-1.1-36.5-1.9-60.5-.2-5.7-.5-10.8z"/><path d="M1155.3 1713.6h111.9l-2.4 60.5h-107.6zm248.8 0l-2.5 60.5h-107.5l-1.9-60.5z" fill="#3030b5"/><path class="_1319263448__st53" d="M1107.3 2017.6H1086l-7.7-304.2 38.2.1zm366 0h-21.2l-7.4-304 39.1-.2z"/><path class="_1319263448__st56" d="M1097.1 2017.6H1086l-7.7-304.2h21.8zm366.5 0h-11.8L1444 1697l22.8-.8z"/><path class="_1319263448__st37" d="M1483.8 1713.4h-405.5v-100.9c0-110.5 89.6-200.1 200.1-200.1h5.3c110.5 0 200.1 89.6 200.1 200.1v100.9z"/><path class="_1319263448__st28" d="M1251.3 1003.2s36-14.5 69.2 5.5c40.5 24.4 30.4 74.3 29.3 88.5-1.1 14.2 7.8 24.4 17.9 34.3s31.8 41.3 11.2 81.6c-19 37.1-2 44.9 11.9 61.6 19.2 23.1 26.8 86.5-51.3 110.6-78.1 24-183.1-.9-180.9-70.1 0 0 .7-24.1 20.1-48.1 30.1-37.2-12.6-42.2-6-96.2 4.5-36.1 36-41 29.8-74.3-6.7-35.9 6.4-79.2 48.8-93.4z"/><path class="_1319263448__st21" d="M2074 1641.8s-119-58.6-91.3-108.2c25.2-44.9 7.8-50.4-10.4-66.3-18.2-15.9-25-36.4 1.1-58s-6.1-65 14.4-93.5c20.5-28.4 71-30.6 92.5 10 10.8 20.3 15.6 44.5 11.3 72.9-3.4 22.4 5.5 44.9 33.8 38.6 7.5-1.7 20.8-3.9 27.9-2.1 26.6 6.6 45.6 36.1 25 90.9-9.6 25.6-38.5 43-62.2 54.9-34.9 17.5-42.1 60.8-42.1 60.8zm17.5 99.1s-17.5-101.5 45.3-127.8c62.8-26.3 62.1-21.9 72.3-53.3 10.2-31.4 38.8-73.1 92.6-60.4 48.7 11.5 48.6 74.3 15.8 98.6-45.6 33.8 3.5 76.4-79.7 105.5-67 23.4-89.7-23.5-146.3 37.4zm-49.5-10.8s25.3-83.7-36.3-93.2-10.3-45-56.1-68.7c-45.8-23.7-78.2 19.7-60 53.7 14.3 26.8-33.2 49 .8 85.3 33.9 36.3 126.3-32.4 151.6 22.9zm-1432.4-16.8s-18.6-115.8 71.6-144.9c76.3-24.6 117.4 36 182.8-17 0 0-4.7 80.5-63.4 91.9 0 0-23.7 4.7-61.6-21.8-18.3-12.8-32.4-1.5-39.5 17-6.9 18.1-26.8 37.2-56.2 30.4 0-.1-26.2-13.4-33.7 44.4zm-244.9-254.9s62.5 95.5 127.6 118.3 92.2 59.7 89.4 127.5c0 0-41.8-109.8-113.9-67.5-46.7 27.4-62.5-6.8-62.5-17.7 0-11-12-20.7-28.7-11.8-24.9 13.1-112.5-24.6-11.9-148.8zm86.7 207.7s8.2 34.2 55.8 38.7c47.5 4.4 58.9 29.8 59.6 51.3 0 0-17.7-44.4-65.3-25.3-47.5 18.9-91.9-15.9-50.1-64.7z"/><path class="_1319263448__st21" d="M485.6 1420.9s20.7 74.2 73.8 103.1c60.8 33.1 34.5 140.9 34.5 140.9s-.4-86.3-63.5-103.4c-63.1-17.2-92-80.4-44.8-140.6z"/><path class="_1319263448__st56" d="M2075.2 1765.9l-5.1-.1c.1-2.8 6.9-283.7-31-378.4l4.7-1.9c38.3 95.7 31.4 377.6 31.4 380.4zm18.9-.4h-5.1v-17.1c0-.8-.4-80.4 79.2-88.5 44.5-4.5 76-33.2 91.1-83 .4-1.2.6-2 .8-2.6l4.8 1.8c-.2.4-.4 1.2-.7 2.3-15.8 51.9-48.8 81.8-95.5 86.6-75 7.6-74.7 82.6-74.7 83.4v17.1zm-48.6 1.2l-5.1-.3c0-.2 1-18.2 0-35.4-1-18-22.1-60.2-68.2-57.7-12.3.6-22.5-3-30.2-10.9-19.2-19.6-16.6-58.2-16.5-59.8l5.1.4c0 .4-2.5 37.9 15.1 55.9 6.7 6.8 15.5 10 26.3 9.4 52.5-2.7 72.5 45.5 73.5 62.5 1 17.4 0 35.7 0 35.9zm-1432.6 20.4h-5.1v-69.4c0-1.1-1.9-114.4 92.1-134.3l1 5c-90 19.1-88.1 128.2-88.1 129.3v69.4zm-44.3 1.1h-5.1v-19c.2-15.9-6.9-31.6-19.1-42-11-9.4-25-13.2-39.3-10.8-37 6.3-45.6-12-45.9-12.7l4.6-2.1c.3.6 7.6 15.4 40.4 9.8 15.9-2.7 31.3 1.5 43.5 11.9 13.3 11.4 21.1 28.5 20.8 45.9v19z"/><path class="_1319263448__st56" d="M583.5 1788.1h-5.1v-71.6c.4-61.6-31.6-103-90.1-116.7-79.1-18.5-112.8-69.7-113.1-70.2l4.3-2.7c.1.1 8.2 12.6 25.8 27.2 16.2 13.4 44 31.4 84.2 40.8 61.1 14.3 94.4 57.5 94 121.7v71.5z"/><path class="_1319263448__st56" d="M597.6 1787.1h-5.1v-137.9c0-.8 2.8-64.6-39.7-91.2-43.4-27.2-58.4-48.6-58.9-54.7l5.1-.4c.3 2.5 11.8 22.7 56.5 50.8 18.7 11.7 31.8 32 38.1 58.6 4.7 20 3.9 36.3 3.9 37l.1 137.8z"/><path class="_1319263448__st21" d="M710 1842.5l-1.7 8.6-.1.4v.3l-3.5 18.2-1 4.8-1.9 9.9-25.8 133.5-185.6-1.4-23.6-132.1-1.8-9.9-.9-4.8-3.2-18.2-.1-.3v-.4l-1.6-8.6z"/><path class="_1319263448__st21" d="M721.2 1851.3H445.4l-14.4-64.2h307.2z"/><path d="M2210.5 1852.9H2072c-10.5 0-18.6 9.3-17.1 19.7l20.8 145.9h-76.9l-23.7-165.7-3.5-24.4h243l-4.1 24.5zm-1502.3-1.4l-.1.3-3.5 18.2-.9 4.8h-143c-11.6 0-20.4 10.5-18.5 21.9l20.7 120.6-72.6-.6-23.6-132-1.8-9.9-.9-4.8-3.2-18.2-.1-.3h247.5z" fill="#c1a2fc"/><path class="_1319263448__st19" d="M1724.6 831.4s-55.1-39-66.6-53.7c-1.3-1.6-7.8 74.8-7.8 74.8s31.7 11.5 45.9 12.9c14.2 1.4 18.4 6.4 18.4 6.4l10.1-40.4z"/><path class="_1319263448__st22" d="M2195.1 1073.7c-32.1 10.3-67.8 16.3-106.9 17h-1c-12.3.2-24.4-.6-36.3-2.2-27.2-3.8-53.1-12.1-76.7-24.3-5.7-2.9-11.3-6.1-16.7-9.4-9.7-6-19-12.7-27.8-20 8.3-28.1 24.6-114.1-11.9-179.5v-.1s0-.1-.1-.1c0 0-31.4 34.5-71 48.2-38.7 13.4-90.6 17.2-144.3-20.7-.2-.1-.5-.3-.7-.5l.2-.6 2.5-7.5 15.3-46.3s60.4 34.7 118.9-14c.8-.6 1.5-1.3 2.3-2 58.3-51.9 38.4-56.8 92.3-97.1 1-.7 2-1.5 3.1-2.3l47.1-23.8s74.5-12.7 132.8 40.6c58.3 53.2 86.3 146.7 62.2 215.2v.1c.3.9 4.5 16.4 8.7 39.2 4.5 24.5 8.9 57.6 8 90.1z"/><path d="M2196.1 1073.3c-.3.1-.6.2-1 .3-32.1 10.3-67.8 16.3-106.9 17-12.6.2-25.1-.5-37.2-2.2h-.1c107.8-68.1 127.4-144.1 127.4-144.1v.1c.3.8 18.6 67.2 17.8 128.9zm-123.5-250.7s135.5 79.9-80.8 228.8c0 0 45.9-41.3 48.4-74.7s13.5-41.5 28.3-62.7c17.8-25.4-19.5-19.7 4.1-91.4zm-154.9 32.5c-.1-.1-31.4 34.4-71 48.2-38.7 13.4-90.6 17.2-144.3-20.7l-.5-1.1 2.5-7.5c15.8 8.2 52.7 24.8 74.4 15 28.3-12.7 41.6-3.2 60.9-12.7 30.5-15.1 37.1-46.9 58.4-51.1 0 0 13.9 20.4 19.6 29.9z" fill="#793dd8"/><path class="_1319263448__st63" d="M1934.3 713.7s-5 20 15 23.8c27.8 5.3 38.3-24.7 38.3-24.7s-35.7-6-36.1-6.1c-.3 0-17.2 7-17.2 7zm116.6 374.7c-2.8-.4-5.5-.8-8.2-1.3-17.1-3-33.7-7.8-49.4-14.2-1.7-.7-3.4-1.4-5-2.2-1.1-.5-2.2-1-3.3-1.4-2-.9-3.9-1.8-5.9-2.7l32.9-29.9c0 .1 45.7 13.4 38.9 51.7z"/><path class="_1319263448__st19" d="M1851.2 586.7s-3 48.5-11.4 52.7-12.6 13.3-3.9 17.2c8.8 3.9 10.2 6 10.9 11.6.7 5.6 4.3 42.2 29 40.2 21.8-1.7 47.2-16.4 60.4 8.4 5 9.3 14.9 15.1 25.4 14.1 6-.6 12.5-2.4 18-6.7 11-8.5 12.6-24.5 4.4-35.7-5.6-7.7-12.8-18.2-17.7-27.6-9.3-17.6-26.6-52.4-26.6-52.4L1925 587l-73.8-.3z"/><path class="_1319263448__st37" d="M1853.4 670s8.9 1.2 20.2-1.5c0 0-.2 7.9-10.4 8.2-9.3.2-9.8-6.7-9.8-6.7z"/><path class="_1319263448__st64" d="M1948.2 637.1s-9.4 8.7-18.9-2.4c0 0-.9 34.2 33 23.3l-14.1-20.9z"/><circle class="_1319263448__st28" cx="1864.1" cy="630.2" r="5.4"/><path class="_1319263448__st28" d="M1860.2 611.5s12.3-3.3 18.8 7.1c0 0-8.3-4.9-15.9-2.9-5.6 1.5-6.1.2-6.6-.4-.4-.6 0-3 3.7-3.8z"/><path class="_1319263448__st28" d="M1971.8 669.7c-1.6 0-18.8-4.2-29.2-31.5l-12.2-19.2s-17.3-.4-25.9-17.7c-21.5 4.6-62.5 9.5-75.2-16.9-15.7-32.5 14.9-21.7 30.5-30.3 16.1-9 63.9-54.9 111.1-17.1 11 8.8 9.2 19.5 15.7 20.4 13.8 2 20 17.8 22.2 25.6 17.7 62.3-37 86.7-37 86.7z"/><ellipse class="_1319263448__st19" cx="1939.3" cy="626.1" rx="12.4" ry="14"/><path class="_1319263448__st18" d="M1657.8 901.3H1522c-11.6 0-21-9.4-21-21V744.5c0-11.6 9.4-21 21-21h135.8c11.6 0 21 9.4 21 21v135.8c0 11.6-9.4 21-21 21z"/><path class="_1319263448__st37" d="M1560.9 823.4c5.3 0 9.7-2.1 13.1-6.3l7 7.2c-5.5 6.2-12 9.3-19.5 9.3s-13.6-2.4-18.5-7.1c-4.8-4.7-7.3-10.7-7.3-17.9 0-7.2 2.5-13.2 7.4-18 4.9-4.8 11-7.2 18.1-7.2 8 0 14.6 3 20 9.1l-6.7 7.6c-3.4-4.3-7.7-6.4-12.8-6.4-4.1 0-7.6 1.3-10.5 4-2.9 2.7-4.3 6.3-4.3 10.8 0 4.5 1.4 8.1 4.1 10.9 2.7 2.7 6 4 9.9 4zm63.4-9.1c0 5.4-1.9 10-5.6 13.7-3.8 3.7-8.5 5.6-14.1 5.6-5.7 0-10.4-1.9-14.1-5.6-3.8-3.7-5.6-8.3-5.6-13.7 0-5.4 1.9-10 5.6-13.7 3.8-3.7 8.5-5.6 14.1-5.6 5.7 0 10.4 1.9 14.1 5.6 3.8 3.7 5.6 8.3 5.6 13.7zm-29 0c0 3.1.9 5.5 2.6 7.5 1.7 1.9 4 2.9 6.7 2.9s4.9-1 6.7-2.9c1.7-1.9 2.6-4.4 2.6-7.5 0-3.1-.9-5.6-2.6-7.5s-4-2.9-6.7-2.9-4.9 1-6.7 2.9-2.6 4.5-2.6 7.5zm37.5 17.5c-1.2-1.2-1.8-2.6-1.8-4.3 0-1.7.6-3.2 1.8-4.3 1.2-1.2 2.6-1.8 4.3-1.8s3.2.6 4.3 1.8c1.2 1.2 1.8 2.6 1.8 4.3 0 1.7-.6 3.2-1.8 4.3-1.2 1.2-2.6 1.8-4.3 1.8s-3.1-.6-4.3-1.8z"/><path class="_1319263448__st18" d="M1036.2 1034.6H900.4c-11.6 0-21-9.4-21-21V877.8c0-11.6 9.4-21 21-21h135.8c11.6 0 21 9.4 21 21v135.8c0 11.6-9.4 21-21 21z"/><path class="_1319263448__st37" d="M1007 985.8h-77.3c-5.3 0-9.6-4.3-9.6-9.6v-43.8c0-5.3 4.3-9.6 9.6-9.6h77.3c5.3 0 9.6 4.3 9.6 9.6v43.8c0 5.3-4.3 9.6-9.6 9.6zm-43.7-69.5h-40.6c-1.5 0-2.7-1.2-2.7-2.7v-5.4c0-1.5 1.2-2.7 2.7-2.7h39.2c1.2 0 2.3.8 2.6 2l1.4 5.4c.5 1.7-.8 3.4-2.6 3.4z"/><path class="_1319263448__st65" d="M862 776.1H611.5c-31.7 0-57.4-25.7-57.4-57.4v-1.5c0-31.7 25.7-57.4 57.4-57.4H862c31.7 0 57.4 25.7 57.4 57.4v1.5c0 31.7-25.7 57.4-57.4 57.4z"/><path class="_1319263448__st56" d="M603.7 701.5h266.1v5.1H603.7zm0 27.9h266.1v5.1H603.7z"/><path class="_1319263448__st65" d="M647.6 767.2l-15.4 36.3c-1.4 3.3-6.1 3.3-7.5 0l-15.4-36.3h38.3z"/><path class="_1319263448__st66" d="M334.5 818.3l-1 4.7-4.9 23h-.1l-3.3-.7-56.7-12.3 15.1-72 50.9 57.3z"/><path class="_1319263448__st66" d="M403 712.1v43.5s.1 84.9-73.9 66.6c-82.4-20.4-35.2-98.7-35.2-98.7l35.6-35.6 72.2 28.7 1.3-4.5z"/><path d="M333.5 823l-4.9 23h-.1c-.4-.1-1.6-.3-3.3-.7-9.7-2.6-39.2-19.2-26.6-60.6-.1-.1 1.8 23.1 34.9 38.3zm46.1-81.1s-8.1 16.4-.1 22.6c8.7 6.8 3.8 15.8-4.2 14.4 0 0 6.6 4 12.2-1.2 5.3-4.9 2.4-12.3-1.4-14.8-3.5-2.3-9.9-6.6-6.5-21z" fill="#7c3131"/><circle class="_1319263448__st68" cx="345.3" cy="751.9" r="5.4"/><circle class="_1319263448__st68" cx="389.9" cy="751.9" r="5.4"/><path class="_1319263448__st69" d="M332.4 734.5s9.4-11 22.8-4.3c0 0 3.5 2.2 1.8 4.3-2.7 3.2-5.1-5.5-24.6 0zm70.6-3.9v2.8c-14.8-3.9-17.5 2.9-19.7-.1-1.6-2.2 2-4.2 2-4.2 7.7-3.2 13.8-1 17.7 1.5z"/><path class="_1319263448__st37" d="M354.8 790.5s12.8 4.3 23.2-.3c0 0-.9 9.8-12.6 9.3-9.7-.4-10.6-9-10.6-9z"/><path class="_1319263448__st69" d="M320 714s54.8 9 94.8.8c0 0-.5.5 3-12.4 3.5-13.2-7.6-55.5-50.7-55.9-52.2-.6-55.7-28.5-103.5 22.5-35.9 38.4-22.9 75.2-11.4 86 22 20.8 25.1 35.2 25.1 35.2s15.6-11.7 9.8-44.2c-.1 0 38 3.3 32.9-32z"/><circle class="_1319263448__st69" cx="257.7" cy="660.2" r="41.5"/><path d="M243.8 700.3s-7.7-60.3 51.1-57.8c.1-.1-37.1 13.8-51.1 57.8z" fill="#7f53f9"/><ellipse class="_1319263448__st66" cx="293.1" cy="743.7" rx="12.8" ry="13.8"/><path class="_1319263448__st22" d="M264.8 825s-8.9 28.5-26.7 32.9c-23.7 5.9-67.5-5.2-97.5 66.1s-59 216 29.7 216.4c94 .4 129.3-.1 129.3-.1l-.3-28.7 83.3 2.1 33.1-159.2s15.6-62.1-40.8-73.9c-46.8-9.8-37.6-19.2-36-36.4 0 .1-40-1.1-74.1-19.2z"/><path class="_1319263448__st71" d="M202.5 964.2c.4-3-38.6 103.2 13.4 105.8 34.1 1.7 66.5 1.7 83.2 1.4.6 0-.1 30.2.4 30.2 7.7-.1 20.3-.6 20.3-.6s4-43.6-76.8-55.7c-44.4-6.5-46.1-42.9-40.5-81.1zm180.2-23.5s-3.5 16.1-8.7 26.7c-9.4 19 29.9 60.9-17.5 86.1 0 0-6.8 2.5-8.6 21.5s-2.5 29.5-2.5 29.5 48 23.4 48.6 19.1c.6-4.3-12.3-31.4-18.5-41.8-6.2-10.5 7.6-24 13.7-43.7s-8.7-43.6-3.5-53.2c11.3-20.8 3.7-36.8-3-44.2z"/><path class="_1319263448__st66" d="M299.1 1140.5v-38.7s49.7-1.5 58.9-1.5c9.2 0 22.9 3.1 48 24.4l18.3 19.8-125.2-4z"/><path d="M667.3 993.2L631.8 1134c-3.5 14-16.1 23.8-30.5 23.8H363.4v-.1H209.5c-5.3 0-9.6-4.3-9.6-9.6 0-2.7 1.1-5 2.8-6.8 1.7-1.7 4.1-2.8 6.8-2.8h158.7l37.6-149.3c2.6-10.3 11.9-17.6 22.5-17.6h222.1c11.4.1 19.6 10.7 16.9 21.6z" fill="#c3b0ff"/><circle class="_1319263448__st37" cx="525.9" cy="1069.5" r="18.1"/><path d="M1152.7 540.9l-1.3-2.1c.5.8.9 1.5 1.3 2.1z" fill="#9883f2"/><path class="_1319263448__st37" d="M2008.2 2017.6H1683c0-38.4 15.6-74.7 40.7-99.9 25.1-25.2 59.9-40.7 98.3-40.7h47.1c76.8 0 139.1 63.8 139.1 140.6z"/><path class="_1319263448__st50" d="M2037.1 2017.6h-36.4v-4.3c0-9.9 8-18 18-18h.5c9.9 0 18 8 18 18v4.3z"/><path class="_1319263448__st74" d="M1908.7 1983.9c0 .3-11.4 1.1-25.6 2.1 13.9 9.2 10.7 30.1 10.7 30.1-.5-12.1-6-13.4-11-16.9-3.9-2.7-8.5-3.9-13.2-3.9l-54.8.6c10.8-24.7-3.1-46.8-18.6-56.8-12.8-8.2-28.2-8.3-28.9-8.3 9.7-.3 17.8-.4 24.9.2 13.8 1.1 26.3 8.4 34.4 19.6 6.6 9 19.7 23.6 36.8 24.1 26.8.7 30-11.5 42.9-32.1 41.2-65.3.6 2.5.6 2.5s1.8 38.2 1.8 38.8z"/><path d="M1947.3 2017.6s32.9-5.7 46.1-21.1l22.5.7s-16.7 4-16.9 20.3l-51.7.1z" fill="#dadaf7"/><path class="_1319263448__st74" d="M1710 1981.1s-10.9 22.1 15.7 21.9c19.1-.1 22.5 14.1 22.5 14.1s6.7-15-15.2-21.8c-4.2-1.3-11.9-2.5-14.8-3.4-8.7-2.6-8.2-10.8-8.2-10.8z"/><path class="_1319263448__st28" d="M1953.5 1910.6s-34.7-14.1-48.3 22.6c-10.8 29.1 1.6 41.6-4 42.7l27.8 1.7s19.8-40.5 19-40.5c-.8 0 5.5-26.5 5.5-26.5z"/><path class="_1319263448__st37" d="M2011.4 1960.1v7.6c0 27.5-28.2 49.9-55.7 49.9H1903c-4 0-7.8-.6-11.2-1.6-2.5-.7-4.8-1.7-7-2.9-5.2-3-9.2-7.2-11.7-12.4-.2-.4-.4-.8-.5-1.2-.4-.8-.7-1.7-1-2.6-.7-2.1-1.1-4.4-1.3-6.7v-.1c-.1-1 0-2 .3-2.9.5-1.8 1.6-3.5 2.9-4.8 2-2 4.7-3.2 7.8-3.2l2.5-.5 1-.2 9-1.7c.6 0 1.2-.1 2-.4 4.5-1.6 11.1-7.8 11.9-11.5 5.1-23.8 6.1-28.7 16-38.5 9.9-9.9 18.7-16.1 33.7-16.1h4.5c4.8 0 9.4.7 13.8 1.9 17.6 5.1 31.2 19.6 34.9 37.7.4 3.4.8 6.7.8 10.2z"/><path class="_1319263448__st74" d="M2009.2 1949.6c-9.6 4.2-24 21.3-29.2 28.1-8.5 11.3-24.4 14.6-37.5 12-4.8-1-9.3-2.7-12.8-5.2-9.3-6.6-9.4-16.8-5.5-29.6 1.6-5.2 3.8-10.7 6.4-16.6 8.5-19.6 29.5-25.1 43.7-26.4 17.6 5 31.2 19.5 34.9 37.7z"/><path d="M1958.6 1968.4c0 10.7-6.9 19.5-16.1 21.3-4.8-1-9.3-2.7-12.8-5.2-9.3-6.6-9.4-16.8-5.5-29.6 3.5-4.9 9-8 15.1-8 10.6-.1 19.3 9.6 19.3 21.5z" fill="#b9b9f9"/><path class="_1319263448__st28" d="M1927.2 1959.3s3.3 5.6 12.9 1.4c0 0-1.5 3.9-4.4 5.4-3.1 1.7-8.9.5-8.5-6.8zm-40 27.8c0 6.9-6.1 12.4-13.6 12.4h-1.1c-.4-.8-.7-1.7-1-2.6-.7-2.1-1.1-4.4-1.4-6.7v-.1c-.1-1 0-2 .3-2.9.5-1.8 1.7-3.4 2.9-4.8 3.3-3.8 10.2-3.7 10.2-3.7 2.3 2.3 3.7 5.2 3.7 8.4zm85.6-74.7c.9-.3 21.1-2.5 34.3 7.9 13.3 10.4 19.7 19.8 23 37.6 3.9 21.1-1 52.6-21.3 57.5-15.5 3.8-43.1 1.1-41-33.6 1.5-24.6 18.9-39.2 15.7-56.6-1.9-10.7-10.7-12.8-10.7-12.8zm-70.6 93.1s-1.1 8.8-10.5 10.5c-2.5-.7-4.8-1.7-7-2.9 3 .3 11.4.5 17.5-7.6z"/><path class="_1319263448__st19" d="M1692.1 822.1s-22.8-4.8-30.6-8.5c-7.9-3.7-15.4 4-6 11.8 9.4 7.8 33.7 22.7 33.7 22.7l2.9-26zm358.3 249s-3.6 8.4-7.7 16.1c-2.8 5.3-5.8 10.2-8 11.9-5.4 4.2-22 11.1-25.8 12-3.8.8-8 2.1-10.5-.7 0 0-5 3.2-8.6 3.4-3.6.2-4.7-.8-5.9-3.2 0 0-3.4 2.3-5.9.7-2.5-1.6-2.7-2.7-1.7-6.3 0 0-4.9 2.6-4.3-4.5.5-7.1 15.4-18.2 16.7-20.3.6-.9 2.9-4.1 4.6-7.2 0 0 3-6.5.5-6.3-1.7.1-4.1 2.6-5.5 4.1-1.1-.5-2.2-1-3.3-1.4-2-.9-3.9-1.8-5.9-2.7 2.3-3.8 8.9-14.2 13.4-16.3 5.6-2.6 19.5-13.5 19.5-13.5l38.4 34.2z"/><path class="_1319263448__st19" d="M2012 1036.8s31.6 10.9 38.4 34.3l-16.6 4s-22.5-24-22.6-24-3-9.5-3-9.5l3.8-4.8z"/><path class="_1319263448__st20" d="M1693.3 818.6c-5.3 2-11.2 1.3-14.6.6v-8.6c1.4 2.1 3.5 4.1 6.4 5.1 7.4 2.5 8.2 2.9 8.2 2.9zm-14.5 23s8.3 8.3 17.6 5.2c0 0-8.2 5-17.6 3.5v-8.7z"/><g><linearGradient id="_1319263448__SVGID_4_" gradientUnits="userSpaceOnUse" x1="1082.927" y1="549.53" x2="1433.32" y2="114.305"><stop offset="0" stop-color="#e476ea"/><stop offset="1" stop-color="#ffd1ab"/></linearGradient><path d="M1651.5 258.2c0 73.7-59.4 139.2-187.9 122.4-35.8-4.7-64.3 11.2-89.7 30.8-10.5 8.1-24.1 18.3-41 28.2-16.7 9.8-36.5 19.2-59.9 26.1-10.1 3-20.8 5.5-32.2 7.3-.3.1-.6.1-1 .2-3.7.6-7.3 1.1-10.9 1.5-3.6.5-7.2.9-10.8 1.2-1.6.2-3.2.3-4.8.4-1.6.2-3.1.3-4.7.4-.5.1-1 .1-1.5.1-4.8.3-9.6.5-14.3.6-23.3.6-46-1-67.4-4.8h-.2c-16.8-2.9-32.8-7.1-47.9-12.5-33.3-11.8-62.1-29.3-83.9-51.2-30.3-30.3-47.3-69.2-45.1-113.7 4.6-91.2 87.8-104.8 148.9-190.8 54.1-76 139.5-102.9 197.7-103.1 187.1-.7 154.4 122.8 250.1 142 84.6 16.9 106.5 66.1 106.5 114.9z" fill="url(#_1319263448__SVGID_4_)"/><linearGradient id="_1319263448__SVGID_5_" gradientUnits="userSpaceOnUse" x1="1325.291" y1="196.706" x2="1328.37" y2="192.467"><stop offset="0" stop-color="#520091"/><stop offset=".339" stop-color="#8529d1"/><stop offset=".555" stop-color="#a240f6"/><stop offset="1" stop-color="#cd79ff"/></linearGradient><path d="M1329 192.2c-2.1 2.2-2.9 3-3.2 3.2.4-.5 3-3.2 3.2-3.2z" fill="url(#_1319263448__SVGID_5_)"/><linearGradient id="_1319263448__SVGID_6_" gradientUnits="userSpaceOnUse" x1="1325.506" y1="204.377" x2="1352.466" y2="167.264"><stop offset="0" stop-color="#520091"/><stop offset=".339" stop-color="#8529d1"/><stop offset=".555" stop-color="#a240f6"/><stop offset="1" stop-color="#cd79ff"/></linearGradient><path d="M1356.3 172.5s-9.9 14.6-9.9 14.9c0 .3-7.6 4.5-8.1 4.9-.5.4-8.6-.1-9.3-.1l.1-.1c.1-.1.2-.2.2-.3.5-.5 1-1.1 1.4-1.6.1 0 .1-.1.1-.1 1.9-2.1 4.1-4.4 6.6-6.8 9.3-9 12.1-21.9 12.5-24.2l6.4 13.4z" fill="url(#_1319263448__SVGID_6_)"/><path class="_1319263448__st19" d="M1269.2 214.6s17.4.6 34.2-21.5l20.5 80.9-43.3 32.6-32.6-4.4-16.5-32.6 26.6-40.9 11.1-14.1z"/><path class="_1319263448__st22" d="M1346.2 516.2s-16-3.8-37.5 7c-3.9 1.9-7.9 4.3-12 7.3 0 0-1.4-2.2-3.7-6.6-4.9-9.5-13.7-29.1-19.8-58.2-2.8-13.5-8.8-34.2-.5-59.5.1-.4.2-.7.4-1 0 0-15.1 14.4-32.1 67.8-10.8 1.7-21.5 2.9-32.1 3.6l-15.8.9s2.7 64.5 25.5 97.4l-62.6 24.8s-34.1-78.8-30.3-127.1v-.1h-.2c-53.7-9.4-100.1-31.8-131.8-63.7 21.8-47.1 101.3-195.8 279.5-194.9-.4.5-4.5 5.5-7.4 13-.1.1-.1.3-.2.4-4.2 11.2-5.7 27.7 10.2 43.8 7.9 7.9 18.2 8.9 27.8 3.2 4.8-2.9 6.6-5.1 10.8-6.9 1.5-.7 3.2-1.3 5.6-1.9 0 0 35.9 41.5 22.9 84.5-8.3 27.4-8.4 55.9-9.7 89.4-1 20.3 2.3 44.6 13 76.8z"/><path class="_1319263448__st71" d="M1146.9 328.7c-25.7 63.2-21.7 143.9-21.7 143.9-16.8-2.9-32.8-7.1-47.9-12.5 11.5-80.9 69.6-131.4 69.6-131.4zm177.6 190.1l-31.6 5.2c-4.9-9.5-13.7-29.1-19.8-58.2-2.8-13.5-8.9-34.6-.6-59.9l22.1-25.1c-.6 1.4-11.5 37.2-.4 57.8 11.4 20.9.9 62.3 30.3 80.2zm-111.1-42.5c-1.6.2-3.1.3-4.7.4-.5.1-1 .1-1.5.1-4.8.3-9.6.5-14.3.6 0-2.4.1-35.9 11.1-69.2 0 0 .7 44.6 9.4 68.1z"/><path class="_1319263448__st63" d="M1314.2 267.5c-.2.9.3 16.5-21.8 18.8-17.4 1.8-41.3-25.4-27-58.9-4.2 11.2-5.7 27.7 10.2 43.8 7.9 7.9 18.2 8.9 27.8 3.2 4.9-2.8 6.7-5 10.8-6.9z"/><path class="_1319263448__st18" d="M1376.9 693h-135.8c-11.6 0-21-9.4-21-21V536.2c0-11.6 9.4-21 21-21h135.8c11.6 0 21 9.4 21 21V672c0 11.6-9.4 21-21 21z"/><path class="_1319263448__st37" d="M1300.4 577.7h-5.4c-3.2 0-5.6.3-7.1 1s-2.8 2.1-3.8 4.1c-1 2.1-1.7 4.5-1.9 7.4h-5.3V572h64.2v18.3h-5.3c-1-4.9-2.4-8.2-4.3-10-1.8-1.7-4.7-2.6-8.8-2.6h-5.5V623c0 2.9.5 5 1.5 6.1 1 1.2 3.1 1.7 6.3 1.7h1.7v5.3h-35.5v-5.3h1.5c3.2 0 5.3-.6 6.3-1.8 1-1.2 1.4-3.2 1.4-6.1v-45.2z"/><path class="_1319263448__st19" d="M1243.4 645c1 3.3.8 4.4-1.8 5.8-2.5 1.5-6-.7-6-.7-1.2 2.3-2.3 3.2-6 3-3.7-.2-8.8-3.2-8.8-3.2-2.5 2.6-6.8 1.4-10.6.6-3.8-.8-28.2-13.3-33.7-17.2-5.5-3.9-13.2-36.7-13.2-36.7l47.2-18.5 9.9 4-.2 11.7-5.4-2c-9.1-1.8-1.6 8.9-.2 10.9 1.4 2 32.6 31.6 33.1 38.1.6 6.6-4.3 4.2-4.3 4.2z"/><ellipse class="_1319263448__st64" cx="1408" cy="233.7" rx="12.4" ry="14"/><path class="_1319263448__st19" d="M1432.1 196.4l-30.7 52.3s-22.5 46.8-62.1 35c-39.9-11.9-41.6-49.8-36.7-90 2.9-23.6 35.7-41.9 35.7-41.9l58.8 4.2 35 40.4z"/><circle class="_1319263448__st28" cx="1353.2" cy="213.7" r="5.4"/><circle class="_1319263448__st28" cx="1393.2" cy="232" r="5.4"/><path class="_1319263448__st37" d="M1346.4 250.7s9.8 9.2 21.2 9.5c0 0-4.9 8.5-15.3 3.2-8.7-4.5-5.9-12.7-5.9-12.7z"/><path class="_1319263448__st28" d="M1346.1 193.6s14.1-13.2 23.8.6c0 0 2.3 4.3-.3 6.8-4.1 3.9-2.4-9.5-23.5-7.4zm65.7 32.5s2.3-19.1-14.6-18.7c0 0-4.8.7-5.3 4.3-.7 5.4 9.1-3.9 19.9 14.4z"/><path class="_1319263448__st64" d="M1382 219.3s-13.3 11.3-8.7 19.7c5 9.2-2.6 15.3-9.1 11.1 0 0 4.3 6 11.2 3.6 6.5-2.3 6.8-9.9 4.3-13.6-2.1-3.2-6.1-9.4 2.3-20.8zm-67.6 47.9l-.2.3c-2.3.8-4 2-5.5 3.4 0 .1-.1.1-.1.1-1.4 1-3 2.2-5.2 3.5-3.3 2-6.7 3.1-10.1 3.5-16.1-26.3 11.9-62.8 11.9-62.8-8 29.2 9.2 52 9.2 52z"/><path class="_1319263448__st28" d="M1352 233.6c-11.2 0-20.4-9.1-20.4-20.4 0-11.2 9.1-20.4 20.4-20.4 11.2 0 20.4 9.1 20.4 20.4 0 11.2-9.2 20.4-20.4 20.4zm0-38.9c-10.2 0-18.5 8.3-18.5 18.5s8.3 18.5 18.5 18.5 18.5-8.3 18.5-18.5-8.3-18.5-18.5-18.5zm45.8 58.3c-11.2 0-20.4-9.1-20.4-20.4 0-11.2 9.1-20.4 20.4-20.4 11.2 0 20.4 9.1 20.4 20.4 0 11.3-9.2 20.4-20.4 20.4zm0-38.8c-10.2 0-18.5 8.3-18.5 18.5s8.3 18.5 18.5 18.5 18.5-8.3 18.5-18.5-8.3-18.5-18.5-18.5z"/><path transform="rotate(22.829 1374.84 223.2)" class="_1319263448__st28" d="M1369.2 222.3h11.4v1.9h-11.4z"/><path class="_1319263448__st20" d="M1352.6 161.4s-10.2 3.9-12.8 15.9c0 0-2.2 4.9-7.7 11.1l-6.1 5.2-4.6-4.3s-3.4-.2-11.2 5.8c-2.2 1.7-4.6 3.5-7.2 5.3-11.6 8.1-16.8 8.9-16.8 8.9s10.1-7.8 10.3-36.3c.2-30.8 24.3-40.3 24.3-40.3l31.8 28.7z"/><path class="_1319263448__st28" d="M1352.6 161.4s16.2-14.8 30.5 6.3c10.9 16 25.9 35.7 50.5 33.8 0 0 19.6-1 22.2-11.7 1.4-5.9-17.1-4.8-18.9-16.8-1.1-7.5 2.1-28.2-15.2-32-13.9-3-14.8-5.6-15.8-15.1-1.3-12.1-20.5-23.2-36.7-14.2s-13-5.1-33.5-4.1c-12.5.6-21.1 9.1-17.6 26.3"/><path class="_1319263448__st60" d="M1323.1 186.6l-.2.1c.1 0 .2 0 .2-.1z"/><path transform="rotate(42.727 1324.198 191.787)" class="_1319263448__st28" d="M1308.1 190.9h32.2v1.9h-32.2z"/><ellipse transform="rotate(3.107 1310.84 186.756) scale(.99997)" class="_1319263448__st19" cx="1310.9" cy="186.7" rx="12.4" ry="14"/></g></g></svg>